# xmcd
#
# Track frame offsets:
#	150
#	17147
#	43737
#	62240
#	83621
#	105272
#	123241
#	144847
#
# Disc length: 2177 seconds
#
# Revision: 0
# Processed by: cddbd v1.5.1PL0 Copyright (c) Steve Scherf et al.
# Submitted via: dBpowerAMP V4.0
#
DISCID=5c087f08
DTITLE=Blues Argento - Blues Argento
DYEAR=2000
DGENRE=Blues
TTITLE0=Chica Traviesa
TTITLE1=Apocalipsis
TTITLE2=Ella y El
TTITLE3=Blues Material
TTITLE4=Pozo
TTITLE5=Harry Boogie
TTITLE6=Solo Soy Yo
TTITLE7=Funky Para Nosotros
EXTD=
EXTT0=
EXTT1=
EXTT2=
EXTT3=
EXTT4=
EXTT5=
EXTT6=
EXTT7=
PLAYORDER=
